<svg width="22" height="22" viewBox="0 0 22 22" fill="none" xmlns="http://www.w3.org/2000/svg">
<path d="M11 0C4.92546 0 0 4.92546 0 11C0 17.0746 4.92546 22.0001 11 22.0001C17.0746 22.0001 22.0001 17.0746 22.0001 11C22.0001 4.92546 17.0746 0 11 0ZM11 20.134C5.95671 20.134 1.86608 16.0433 1.86608 11C1.86608 5.95671 5.95671 1.86608 11 1.86608C16.0433 1.86608 20.134 5.95671 20.134 11C20.134 16.0433 16.0433 20.134 11 20.134Z" fill="#D160FF"/>
<path d="M7.90131 11.0001L6.63006 12.2802L5.34998 11.0001L6.63006 9.72002L7.90131 11.0001ZM11 7.90143L13.1894 10.0908L14.4695 8.81073L12.2801 6.63018L11 5.3501L9.71991 6.63018L7.53936 8.81073L8.81944 10.0908L11 7.90143ZM15.3699 9.72002L14.0987 11.0001L15.3788 12.2802L16.65 11.0001L15.3699 9.72002ZM11 14.0988L8.81061 11.9094L7.53936 13.1895L9.72874 15.3789L11 16.6501L12.2801 15.37L14.4695 13.1807L13.1894 11.9094L11 14.0988ZM11 12.2802L12.2801 11.0001L11 9.72002L9.71991 11.0001L11 12.2802Z" fill="#D160FF"/>
</svg>
