<svg width="22" height="22" viewBox="0 0 22 22" fill="none" xmlns="http://www.w3.org/2000/svg">
<path d="M10.7719 0C4.82331 0 0 4.76649 0 10.645C0 16.5235 4.82331 21.29 10.7719 21.29C16.7205 21.29 21.5438 16.5235 21.5438 10.645C21.5438 4.76649 16.7205 0 10.7719 0ZM10.7719 19.4842C5.83317 19.4842 1.82737 15.5255 1.82737 10.645C1.82737 5.76446 5.83317 1.80585 10.7719 1.80585C15.7106 1.80585 19.7164 5.76446 19.7164 10.645C19.7164 15.5255 15.7106 19.4842 10.7719 19.4842Z" fill="#FF759F"/>
<path d="M8.78364 5.11719V6.42704H7.01636V10.3566L7.01636 10.937L11.6298 10.9369L8.61811 10.937H10.6725L11.4863 10.9368L8.91525 10.937C6.63053 10.937 10.5567 10.937 10.0194 10.937C10.7908 10.937 10.3807 10.9369 11.6298 10.9369C10.2047 10.9358 11.7568 10.9369 11.6298 10.9369C13.4335 10.9382 14.0855 9.54816 14.0855 8.82843C14.0855 7.50664 12.993 6.42704 11.6555 6.42704H11.4346V5.11719H10.5509V6.42704H9.66728V5.11719H8.78364ZM7.9 7.30027H11.6555C12.515 7.30027 13.158 7.8628 13.158 8.71216C13.158 9.56151 12.4893 10.0567 11.6298 10.0567H7.9V7.30027ZM8.30335 10.937L11.4863 10.9368C12.3458 10.9368 9.18353 10.937 8.14914 10.937C9.57588 10.937 12.3458 10.9368 11.4863 10.9368L7.01636 10.937H8.30335Z" fill="#FF759F"/>
<path d="M10.5177 10.053L8.91512 10.053H7.01636L7.01636 14.863H8.78364V16.1728H9.66728V14.863H10.5509V16.1728H11.4346V14.863H12.0973C13.4348 14.863 14.5273 13.7834 14.5273 12.4616C14.5273 11.5525 13.6437 10.053 12.0973 10.053C10.1676 10.053 11.1844 10.053 9.44459 10.053C7.31247 10.053 9.88238 10.053 8.54484 10.053L7.01636 10.053L10.0733 10.053L10.5177 10.053ZM8.75441 10.053L10.4116 10.053L10.7665 10.053C11.626 10.053 11.1544 10.053 10.6636 10.053C8.92378 10.053 11.727 10.053 10.8675 10.053L7.96574 10.053H8.75441ZM7.9 10.9334H12.0973C12.9568 10.9334 13.6437 11.6122 13.6437 12.4616C13.6437 13.3109 12.9568 13.9897 12.0973 13.9897H7.9V10.9334Z" fill="#FF759F"/>
</svg>
