<svg width="17" height="22" viewBox="0 0 17 22" fill="none" xmlns="http://www.w3.org/2000/svg">
<path d="M16.0407 9.63486C15.5787 8.59512 14.9072 7.6619 14.068 6.89359L13.3756 6.25825C13.3521 6.23726 13.3238 6.22238 13.2932 6.21488C13.2626 6.20739 13.2306 6.20753 13.2 6.21528C13.1695 6.22304 13.1413 6.23817 13.118 6.25935C13.0947 6.28053 13.0769 6.30712 13.0662 6.33677L12.7569 7.22435C12.5641 7.78117 12.2096 8.34989 11.7075 8.90909C11.6742 8.94478 11.6361 8.9543 11.6099 8.95668C11.5838 8.95906 11.5433 8.9543 11.5076 8.92099C11.4743 8.89243 11.4576 8.8496 11.46 8.80677C11.5481 7.37426 11.1197 5.75854 10.1822 4.00003C9.40645 2.53897 8.3285 1.39916 6.98166 0.604383L5.9989 0.0261471C5.8704 -0.0499992 5.70621 0.0499427 5.71335 0.199856L5.7657 1.34205C5.8014 2.12255 5.71097 2.81263 5.49681 3.3861C5.23506 4.08808 4.85909 4.74008 4.37841 5.32545C4.0439 5.73227 3.66476 6.10024 3.24812 6.42244C2.24466 7.19381 1.42873 8.18221 0.861405 9.31362C0.295481 10.4549 0.000690459 11.7114 0 12.9853C0 14.1085 0.2213 15.1959 0.659141 16.2215C1.08191 17.209 1.69202 18.1051 2.45572 18.8605C3.2267 19.6219 4.12142 20.2216 5.11846 20.638C6.15119 21.0711 7.2458 21.29 8.37609 21.29C9.50639 21.29 10.601 21.0711 11.6337 20.6404C12.6283 20.2264 13.5327 19.6226 14.2965 18.8628C15.0674 18.1014 15.6719 17.2114 16.093 16.2239C16.5302 15.2011 16.7545 14.1 16.7522 12.9877C16.7522 11.8264 16.5142 10.6985 16.0407 9.63486ZM13.159 17.7087C11.8812 18.9747 10.1846 19.6695 8.37609 19.6695C6.56762 19.6695 4.87098 18.9747 3.59315 17.7087C2.32008 16.4452 1.61811 14.77 1.61811 12.9877C1.61811 11.9526 1.85131 10.9603 2.31056 10.037C2.75792 9.13515 3.4242 8.32847 4.23326 7.70741C4.74924 7.31286 5.21724 6.85923 5.62769 6.35581C6.22258 5.63004 6.68898 4.82098 7.0126 3.95244C7.14535 3.59417 7.24181 3.22348 7.30053 2.84594C7.874 3.3742 8.35468 4.01193 8.75683 4.75912C9.5516 6.24873 9.91806 7.57415 9.84667 8.70207C9.82961 8.96771 9.873 9.23377 9.97356 9.48024C10.0741 9.7267 10.2293 9.94716 10.4273 10.125C10.5989 10.2801 10.7996 10.3994 11.0177 10.4762C11.2359 10.553 11.4671 10.5857 11.698 10.5724C12.1668 10.5486 12.5975 10.3416 12.9116 9.99179C13.228 9.63724 13.5017 9.27554 13.7301 8.90671C14.0633 9.33265 14.3417 9.79667 14.563 10.2964C14.9413 11.1483 15.1341 12.0549 15.1341 12.9877C15.1341 14.77 14.4321 16.4476 13.159 17.7087Z" fill="#FF6850"/>
</svg>
