<svg width="22" height="22" viewBox="0 0 22 22" fill="none" xmlns="http://www.w3.org/2000/svg">
<path d="M5.3225 8.48273C5.3225 8.78522 5.44266 9.07532 5.65656 9.28922C5.87045 9.50311 6.16055 9.62327 6.46304 9.62327C6.76553 9.62327 7.05562 9.50311 7.26952 9.28922C7.48341 9.07532 7.60357 8.78522 7.60357 8.48273C7.60357 8.18025 7.48341 7.89015 7.26952 7.67625C7.05562 7.46236 6.76553 7.3422 6.46304 7.3422C6.16055 7.3422 5.87045 7.46236 5.65656 7.67625C5.44266 7.89015 5.3225 8.18025 5.3225 8.48273ZM13.6864 8.48273C13.6864 8.78522 13.8066 9.07532 14.0205 9.28922C14.2344 9.50311 14.5245 9.62327 14.827 9.62327C15.1295 9.62327 15.4196 9.50311 15.6334 9.28922C15.8473 9.07532 15.9675 8.78522 15.9675 8.48273C15.9675 8.18025 15.8473 7.89015 15.6334 7.67625C15.4196 7.46236 15.1295 7.3422 14.827 7.3422C14.5245 7.3422 14.2344 7.46236 14.0205 7.67625C13.8066 7.89015 13.6864 8.18025 13.6864 8.48273ZM10.645 0C4.76649 0 0 4.76649 0 10.645C0 16.5235 4.76649 21.29 10.645 21.29C16.5235 21.29 21.29 16.5235 21.29 10.645C21.29 4.76649 16.5235 0 10.645 0ZM16.8942 16.8942C16.0816 17.7068 15.1359 18.3436 14.0832 18.7903C12.9974 19.2513 11.8402 19.4842 10.645 19.4842C9.44981 19.4842 8.29265 19.2513 7.20438 18.7903C6.15336 18.3464 5.19866 17.7025 4.39344 16.8942C3.58081 16.0816 2.94401 15.1359 2.4973 14.0832C2.03871 12.9974 1.80585 11.8402 1.80585 10.645C1.80585 9.44981 2.03871 8.29265 2.49967 7.20438C2.94355 6.15336 3.58755 5.19866 4.39581 4.39344C5.20845 3.58081 6.15414 2.94401 7.20676 2.4973C8.29265 2.03871 9.44981 1.80585 10.645 1.80585C11.8402 1.80585 12.9974 2.03871 14.0856 2.49967C15.1366 2.94355 16.0913 3.58755 16.8966 4.39581C17.7092 5.20845 18.346 6.15414 18.7927 7.20676C19.2513 8.29265 19.4842 9.44981 19.4842 10.645C19.4842 11.8402 19.2513 12.9974 18.7903 14.0856C18.347 15.1362 17.7029 16.0903 16.8942 16.8942ZM14.2567 11.144H13.1138C13.014 11.144 12.9284 11.22 12.9213 11.3198C12.831 12.496 11.8449 13.4251 10.645 13.4251C9.44506 13.4251 8.4566 12.496 8.36868 11.3198C8.36155 11.22 8.27601 11.144 8.17622 11.144H7.0333C7.00752 11.144 6.982 11.1492 6.9583 11.1593C6.93459 11.1694 6.9132 11.1843 6.89542 11.203C6.87763 11.2216 6.86384 11.2437 6.85486 11.2679C6.84589 11.2921 6.84193 11.3178 6.84321 11.3436C6.94776 13.3466 8.61342 14.9458 10.645 14.9458C12.6766 14.9458 14.3422 13.3466 14.4468 11.3436C14.4481 11.3178 14.4441 11.2921 14.4351 11.2679C14.4262 11.2437 14.4124 11.2216 14.3946 11.203C14.3768 11.1843 14.3554 11.1694 14.3317 11.1593C14.308 11.1492 14.2825 11.144 14.2567 11.144Z" fill="#FF5AED"/>
</svg>
