<svg width="85" height="35" viewBox="0 0 85 35" fill="none" xmlns="http://www.w3.org/2000/svg">
<path d="M15.524 34.8945V27.0401H20.7105V34.8945H25.8868V27.0401H27.1796C30.9555 27.0347 34.5754 25.5163 37.2465 22.8175C39.9177 20.1188 41.4225 16.4595 41.4311 12.6412C41.4311 8.32796 37.8683 -0.0154198 27.3629 2.1403e-05H17.5955C20.7436 2.1403e-05 -2.21407 0.0566391 11.1722 0.0566391L27.0295 2.1403e-05H0V27.0401H10.3552V34.8945H15.524ZM5.17635 5.27833H27.0295C32.0659 5.27833 35.985 8.24818 35.985 13.3386C35.985 18.4291 32.0659 21.8055 27.0295 21.8055H5.17635V5.27833ZM0 2.1403e-05H27.0295C32.0659 2.1403e-05 15.0379 0.0617861 6.68039 0.0617861C12.7398 0.0617861 32.0659 2.1403e-05 27.0295 2.1403e-05L7.56602 0.0695067L0 2.1403e-05Z" fill="white"/>
<path d="M12.3352 15.3948C14.1104 15.3948 15.5494 13.9396 15.5494 12.1444C15.5494 10.3493 14.1104 8.89404 12.3352 8.89404C10.56 8.89404 9.12097 10.3493 9.12097 12.1444C9.12097 13.9396 10.56 15.3948 12.3352 15.3948Z" fill="white"/>
<path d="M74.5175 34.8945V27.0401H84.8728V2.1403e-05H57.8433L73.7006 0.0566391C87.0868 0.0566391 64.1317 2.1403e-05 67.2773 2.1403e-05H57.515C56.7693 2.1403e-05 65.8648 2.1403e-05 57.515 2.1403e-05C46.9994 -0.0154198 43.4467 8.32796 43.4467 12.6412C43.4521 16.4595 44.9536 20.1201 47.6224 22.8213C50.291 25.5225 53.9096 27.0442 57.6855 27.053H58.9783V34.9074H64.1572V27.0401H69.3335V34.8945H74.5175ZM79.6964 21.8055H57.8433C52.8069 21.8055 48.8877 18.4316 48.8877 13.3386C48.8877 8.24561 52.8069 5.27833 57.8433 5.27833H79.6964V21.8055ZM77.3068 0.0695067L57.8433 2.1403e-05C52.8069 2.1403e-05 72.133 0.0617861 78.2026 0.0617861C69.8451 0.0617861 52.8171 2.1403e-05 57.8433 2.1403e-05H84.8728L77.3068 0.0695067Z" fill="white"/>
<path d="M72.1406 15.1968C73.9156 15.1968 75.3548 13.7416 75.3548 11.9464C75.3548 10.1513 73.9156 8.69604 72.1406 8.69604C70.3655 8.69604 68.9263 10.1513 68.9263 11.9464C68.9263 13.7416 70.3655 15.1968 72.1406 15.1968Z" fill="white"/>
</svg>
