<svg width="17" height="21" viewBox="0 0 17 21" fill="none" xmlns="http://www.w3.org/2000/svg">
<path d="M15.2727 16.6091H14.7V8.49545C14.7 5.1283 12.211 2.3458 8.97273 1.88284V0.954545C8.97273 0.427159 8.54557 0 8.01818 0C7.4908 0 7.06364 0.427159 7.06364 0.954545V1.88284C3.82534 2.3458 1.33636 5.1283 1.33636 8.49545V16.6091H0.763636C0.34125 16.6091 0 16.9503 0 17.3727V18.1364C0 18.2414 0.0859091 18.3273 0.190909 18.3273H5.34545C5.34545 19.802 6.54341 21 8.01818 21C9.49295 21 10.6909 19.802 10.6909 18.3273H15.8455C15.9505 18.3273 16.0364 18.2414 16.0364 18.1364V17.3727C16.0364 16.9503 15.6951 16.6091 15.2727 16.6091ZM8.01818 19.4727C7.3858 19.4727 6.87273 18.9597 6.87273 18.3273H9.16364C9.16364 18.9597 8.65057 19.4727 8.01818 19.4727ZM3.05455 16.6091V8.49545C3.05455 7.16864 3.57 5.92295 4.50784 4.98511C5.44568 4.04727 6.69136 3.53182 8.01818 3.53182C9.345 3.53182 10.5907 4.04727 11.5285 4.98511C12.4664 5.92295 12.9818 7.16864 12.9818 8.49545V16.6091H3.05455Z" fill="#AB62FF"/>
</svg>
