<svg width="22" height="22" viewBox="0 0 22 22" fill="none" xmlns="http://www.w3.org/2000/svg">
<path d="M1.9263 10.4473C1.95165 9.33972 2.17975 8.26508 2.60809 7.25381C3.04656 6.21465 3.67512 5.28448 4.47603 4.48104C5.27694 3.67759 6.20965 3.04903 7.2488 2.61056C8.32344 2.15688 9.46397 1.92624 10.6425 1.92624C11.8211 1.92624 12.9616 2.15688 14.0337 2.61056C15.0699 3.04813 16.0109 3.68347 16.804 4.48104C17.0549 4.73196 17.2906 4.99808 17.5086 5.27688L15.9828 6.46811C15.9526 6.49146 15.9296 6.52286 15.9165 6.55869C15.9033 6.59453 15.9006 6.63335 15.9085 6.67068C15.9165 6.70801 15.9348 6.74234 15.9614 6.76973C15.9879 6.79711 16.0217 6.81643 16.0588 6.82547L20.512 7.91532C20.6387 7.94573 20.7629 7.84942 20.7629 7.72016L20.7832 3.13521C20.7832 2.96539 20.588 2.86908 20.4562 2.97553L19.0267 4.09326C17.0777 1.59928 14.0464 0 10.64 0C4.8334 0 0.109048 4.65339 6.33783e-05 10.4372C-0.000613099 10.4642 0.0041316 10.4911 0.014018 10.5163C0.0239045 10.5415 0.0387325 10.5645 0.0576285 10.5838C0.0765245 10.6032 0.0991062 10.6186 0.124043 10.6291C0.148979 10.6396 0.175766 10.645 0.202825 10.645H1.72354C1.83506 10.645 1.92377 10.5563 1.9263 10.4473ZM21.0873 10.645H19.5666C19.4551 10.645 19.3664 10.7337 19.3638 10.8427C19.3385 11.9503 19.1104 13.0249 18.682 14.0362C18.2436 15.0753 17.615 16.0081 16.8141 16.809C16.0057 17.6207 15.0446 18.2644 13.9863 18.7028C12.9279 19.1413 11.7932 19.3659 10.6476 19.3638C9.50238 19.3659 8.36808 19.1413 7.31014 18.7028C6.25219 18.2643 5.29155 17.6206 4.48364 16.809C4.23272 16.558 3.99701 16.2919 3.77904 16.0131L5.30482 14.8219C5.33501 14.7985 5.358 14.7671 5.37113 14.7313C5.38427 14.6955 5.38702 14.6567 5.37908 14.6193C5.37114 14.582 5.35282 14.5477 5.32623 14.5203C5.29964 14.4929 5.26587 14.4736 5.22879 14.4645L0.775628 13.3747C0.648901 13.3443 0.52471 13.4406 0.52471 13.5698L0.506968 18.1573C0.506968 18.3271 0.702127 18.4235 0.833922 18.317L2.26339 17.1993C4.21244 19.6907 7.24373 21.29 10.6501 21.29C16.4593 21.29 21.1811 16.6341 21.2901 10.8528C21.2907 10.8258 21.286 10.7989 21.2761 10.7737C21.2662 10.7485 21.2514 10.7255 21.2325 10.7062C21.2136 10.6868 21.191 10.6714 21.1661 10.6609C21.1411 10.6504 21.1144 10.645 21.0873 10.645Z" fill="#FF71CC"/>
</svg>
