<svg width="17" height="18" viewBox="0 0 17 18" fill="none" xmlns="http://www.w3.org/2000/svg">
<path d="M16.9489 16.7449L11.4303 11.2263C12.2867 10.1191 12.7499 8.76551 12.7499 7.34177C12.7499 5.63753 12.0848 4.03953 10.8821 2.83466C9.67933 1.62979 8.07709 0.966797 6.37497 0.966797C4.67285 0.966797 3.07061 1.63192 1.86787 2.83466C0.662997 4.03741 0 5.63753 0 7.34177C0 9.04389 0.665122 10.6461 1.86787 11.8489C3.07061 13.0537 4.67073 13.7167 6.37497 13.7167C7.79872 13.7167 9.15021 13.2535 10.2573 12.3993L15.7759 17.9157C15.7921 17.9319 15.8113 17.9448 15.8325 17.9535C15.8536 17.9623 15.8763 17.9668 15.8992 17.9668C15.9221 17.9668 15.9447 17.9623 15.9659 17.9535C15.987 17.9448 16.0062 17.9319 16.0224 17.9157L16.9489 16.9914C16.9651 16.9752 16.978 16.956 16.9867 16.9348C16.9955 16.9137 17 16.891 17 16.8681C17 16.8452 16.9955 16.8225 16.9867 16.8014C16.978 16.7803 16.9651 16.761 16.9489 16.7449ZM9.74096 10.7078C8.83996 11.6066 7.64572 12.1018 6.37497 12.1018C5.10423 12.1018 3.90998 11.6066 3.00899 10.7078C2.11012 9.80676 1.61499 8.61252 1.61499 7.34177C1.61499 6.07103 2.11012 4.87466 3.00899 3.97578C3.90998 3.07691 5.10423 2.58179 6.37497 2.58179C7.64572 2.58179 8.84209 3.07479 9.74096 3.97578C10.6398 4.87678 11.135 6.07103 11.135 7.34177C11.135 8.61252 10.6398 9.80889 9.74096 10.7078Z" fill="white"/>
</svg>
